<svg xmlns="http://www.w3.org/2000/svg" viewBox="0 0 793.7 267.29"><defs><style>.cls-1{fill:#fff;}.cls-2{fill:#fdc300;}.cls-2,.cls-3{fill-rule:evenodd;}.cls-3{fill:#ea5b0c;}</style></defs><title>msq logo</title><g id="Ebene_2" data-name="Ebene 2"><g id="Ebene_1-2" data-name="Ebene 1"><path class="cls-1" d="M28.11,49.19V59C36.37,51,43.4,48,53.94,48c12.3,0,20.55,4.57,26.88,14.76,6.32-9.84,15.28-14.93,27.05-14.93,9.32,0,18.1,4,22.49,10.71,3,4.4,4.39,10.19,4.39,18.63v51.65H106.64V89.43c0-8.09-.17-9.49-1.58-12.65a10.76,10.76,0,0,0-10.19-7,13.23,13.23,0,0,0-11.59,7.38c-1.41,3-1.94,6.32-1.94,12.3v39.35H53.23V89.43c0-8.44-.17-9.84-1.23-12.65a12,12,0,0,0-10.89-7.56A13.42,13.42,0,0,0,30,75.9c-1.4,2.81-1.93,6.5-1.93,13.53v39.35H0V49.19Z"/><path class="cls-1" d="M187.26,18.13A15.81,15.81,0,1,1,171.45,2.32,15.74,15.74,0,0,1,187.26,18.13ZM185.5,128.78H157.39V49.19H185.5Z"/><path class="cls-1" d="M236,49.19v10c7.56-8.79,14.06-11.77,25.48-11.77,9.84,0,17.39,2.8,23,8.78,5.63,5.62,7.38,11.07,7.38,22v50.6H263.74V88.54c0-8.07-.17-9.65-1.76-12.64-1.75-3.69-6.32-6.15-11.24-6.15A16.06,16.06,0,0,0,239,75c-2.11,2.81-3,5.8-3,11.07v42.69H207.87V49.19Z"/><path class="cls-1" d="M402.23,0V128.78H374.12V120c-6.15,7.9-13.88,11.42-24.59,11.42-22.67,0-40.24-18.63-40.24-42.7,0-23.89,17.39-42.16,40.06-42.16,10.19,0,17.74,3.16,24.77,10.36V0Zm-63.6,88.72A18.19,18.19,0,1,0,356.72,70.8,18.18,18.18,0,0,0,338.63,88.72Z"/><path class="cls-1" d="M283.21,168.66A33.78,33.78,0,0,0,268,164.81c-5.08,0-8.58,2.45-8.58,5.6,0,2.28,1.57,3.86,4.73,4.91,1.05.35,1.75.52,7.88,1.92,15.77,3.16,23.12,10.69,23.12,23.48,0,18-14.88,29.78-37.84,29.78-11,0-21.37-3-31.7-9.11l10.16-19.79c7.35,4.9,15.94,8.06,22.42,8.06,5.08,0,8.76-2.63,8.76-6.14,0-4-2.1-5.25-11.91-7.35-17-3.51-23.3-9.64-23.3-22.08,0-17.69,13.49-28.73,35.39-28.73a60.66,60.66,0,0,1,25.57,5.08Z"/><path class="cls-1" d="M374.2,219.81c-7,7.19-14.54,10.34-24.7,10.34-22.6,0-39.95-18.39-39.95-42,0-24,17.52-42.58,40.13-42.58,10.68,0,18.39,3.51,24.52,11.39v-8.75h28V267.29h-28Zm-35.39-32.23a18.14,18.14,0,1,0,18.05-17.87A18.14,18.14,0,0,0,338.81,187.58Z"/><path class="cls-1" d="M450.07,193.19c0,9.63,4.73,14.54,14.36,14.54,9.46,0,14.19-4.91,14.19-14.54v-45h28v50.45c0,21-14.71,32.23-42.22,32.23-27.68,0-42.39-11.21-42.39-32.23V148.17h28Z"/><path class="cls-1" d="M615.41,148.17v79.36h-28v-8.77c-6.14,7.89-13.84,11.39-24.53,11.39-22.6,0-40.12-18.57-40.12-42.57,0-23.83,17.35-42.05,39.94-42.05,10.16,0,17.7,3.16,24.71,10.34v-7.7ZM552,187.58a18.14,18.14,0,1,0,18-17.87A18.15,18.15,0,0,0,552,187.58Z"/><path class="cls-1" d="M666.08,148.17v13c6.48-10,14-14,26.1-14,1.76,0,2.8,0,5.44.17v26.81a22.54,22.54,0,0,0-11.92-2.8c-13.14,0-19.62,7.53-19.62,22.25v34h-28V148.17Z"/><path class="cls-1" d="M734.66,193c.17,12.09,5.78,17.87,17,17.87,6.66,0,10.34-1.93,13.85-7.53h27c-1.92,6.65-3.68,10.16-7,14-7.18,8.59-19.62,13.32-33.81,13.32-27.33,0-45.37-16.64-45.37-42.05,0-26.28,17-42.75,44.14-42.75,27,0,43.28,16.65,43.28,44.33V193Zm32.93-16.29c-1.92-8.06-8.05-12.79-16.47-12.79-8.58,0-14.36,4.73-15.76,12.79Z"/><polygon class="cls-2" points="422.2 128.17 549.51 128.17 549.51 0.78 422.2 0.78 422.2 128.17 422.2 128.17"/><polygon class="cls-3" points="422.2 64.5 485.81 64.5 485.81 0.78 422.2 0.78 422.2 64.5 422.2 64.5"/></g></g></svg>